<?xml version="1.0" encoding="UTF-8"?>
<svg width="70px" height="57px" viewBox="0 0 70 57" version="1.1" xmlns="http://www.w3.org/2000/svg" xmlns:xlink="http://www.w3.org/1999/xlink">
    <!-- Generator: Sketch 48.2 (47327) - http://www.bohemiancoding.com/sketch -->
    <title>anomia-purple</title>
    <desc>Created with Sketch.</desc>
    <defs></defs>
    <g id="Shapes" stroke="none" stroke-width="1" fill="none" fill-rule="evenodd" transform="translate(-395.000000, -60.000000)">
        <g id="purple" transform="translate(395.000000, 60.000000)" fill="#8537A3">
            <g id="Squiggles">
                <g id="Group-3" transform="translate(4.090909, 25.454545)">
                    <rect id="Rectangle-4" transform="translate(52.470391, 16.037775) scale(-1, 1) rotate(-36.000000) translate(-52.470391, -16.037775) " x="47.9249368" y="0.128683593" width="9.09090909" height="31.8181818"></rect>
                    <rect id="Rectangle-4-Copy-4" transform="translate(13.370186, 15.722266) scale(-1, 1) rotate(-36.000000) translate(-13.370186, -15.722266) " x="8.82473124" y="-0.186824563" width="9.09090909" height="31.8181818"></rect>
                    <rect id="Rectangle-4-Copy-5" transform="translate(32.920289, 15.880020) scale(-1, 1) rotate(-306.000000) translate(-32.920289, -15.880020) " x="28.374834" y="-0.0290704848" width="9.09090909" height="31.8181818"></rect>
                </g>
                <g id="Group-2">
                    <rect id="Rectangle-4" transform="translate(52.538905, 16.095915) scale(-1, 1) rotate(-36.000000) translate(-52.538905, -16.095915) " x="47.9934506" y="0.186824563" width="9.09090909" height="31.8181818"></rect>
                    <rect id="Rectangle-4-Copy-4" transform="translate(13.438700, 15.780407) scale(-1, 1) rotate(-36.000000) translate(-13.438700, -15.780407) " x="8.89324502" y="-0.128683593" width="9.09090909" height="31.8181818"></rect>
                    <rect id="Rectangle-4-Copy-5" transform="translate(32.988802, 15.938161) scale(-1, 1) rotate(-306.000000) translate(-32.988802, -15.938161) " x="28.4433478" y="0.0290704848" width="9.09090909" height="31.8181818"></rect>
                </g>
            </g>
        </g>
    </g>
</svg>